<svg id="Layer_1" enable-background="new 0 0 128 128" height="512" viewBox="0 0 128 128" width="512" xmlns="http://www.w3.org/2000/svg"><path d="m87.77 74.104h-3.253v-2.673c0-.335-.036-.662-.099-.979.038-.038.081-.071.119-.111 1.916-1.973 2.927-4.576 2.847-7.33-.152-5.191-4.497-9.578-9.685-9.78-1.982-.079-3.905.416-5.588 1.436-1.301-1.345-3.106-2.126-4.992-2.126-1.848 0-3.575.717-4.868 1.997-1.579-1.054-3.46-1.492-5.397-1.249-3.087.394-5.728 2.681-6.59 5.769-.082.303-.27.546-.53.684-.248.132-.537.152-.813.057-.921-.316-1.888-.427-2.87-.329-3.014.3-5.522 2.686-5.964 5.672-.29 1.96.28 3.935 1.562 5.417.366.423.784.788 1.233 1.103v9.466 5.106 25.692c0 8.186 6.66 14.845 14.846 14.845h11.944c6.935 0 12.758-4.786 14.38-11.225h3.718c4.496 0 8.154-3.658 8.154-8.153v-25.135c.001-4.496-3.657-8.154-8.154-8.154zm-3.253 7.31h2.634c.856 0 1.553.697 1.553 1.553v23.718c0 .856-.696 1.553-1.553 1.553h-2.634z" fill="#e6e7e8"/><path d="m46.202 56.466c4.262 0 7.729-3.467 7.729-7.729s-3.467-7.729-7.729-7.729-7.729 3.467-7.729 7.729 3.467 7.729 7.729 7.729z" fill="#e6e7e8"/><circle cx="31.256" cy="60.26" fill="#e6e7e8" r="3.28"/><path d="m108.538 33.75c-.245-.971-1.049-1.642-2.049-1.708l-1.968-.131c-.394-.026-.724-.302-.82-.686l-.483-1.912c-.245-.971-1.05-1.642-2.049-1.708-.978-.064-1.885.49-2.257 1.42l-.733 1.831c-.146.367-.494.587-.905.569l-1.968-.132c-.979-.068-1.885.491-2.258 1.42-.372.93-.115 1.945.653 2.586l1.515 1.263c.304.253.409.669.262 1.037l-.733 1.831c-.372.929-.115 1.944.653 2.586.771.642 1.814.711 2.661.178l1.669-1.05c.334-.21.764-.182 1.067.071l1.515 1.263c.426.354.935.534 1.448.534.415 0 .834-.118 1.213-.356.848-.533 1.237-1.505.992-2.476l-.483-1.912c-.097-.383.063-.782.397-.993l1.67-1.051c.847-.532 1.236-1.503.991-2.474z" fill="#e6e7e8"/><path d="m52.162 19.124 1.578.301c.237.045.417.236.447.476l.201 1.594c.112.891.754 1.575 1.636 1.743.134.026.267.038.398.038.731 0 1.398-.389 1.765-1.056l.774-1.408c.117-.211.356-.324.591-.278l1.578.301c.883.168 1.73-.231 2.163-1.018s.315-1.717-.299-2.372l-1.1-1.171c-.165-.176-.198-.437-.082-.648l.775-1.408c.432-.787.314-1.718-.3-2.372-.615-.654-1.536-.832-2.348-.448l-1.453.684c-.219.104-.477.053-.642-.123l-1.1-1.171c-.615-.655-1.536-.83-2.348-.448s-1.264 1.204-1.152 2.095l.202 1.593c.03.24-.097.47-.315.573l-1.454.684c-.812.382-1.264 1.205-1.152 2.095s.756 1.576 1.637 1.744z" fill="#e6e7e8"/><path d="m81.66 13.012c.199.166.269.439.172.679l-.613 1.531c-.338.844-.104 1.766.594 2.349.699.583 1.648.646 2.416.161l1.396-.877c.22-.138.502-.118.7.046l1.266 1.056c.387.322.849.485 1.315.485.377 0 .757-.107 1.102-.323.77-.484 1.123-1.367.901-2.249l-.404-1.598c-.063-.252.042-.514.261-.651l1.396-.878c.77-.485 1.122-1.368.899-2.25-.223-.881-.953-1.49-1.859-1.55l-1.646-.11c-.258-.018-.474-.198-.537-.449l-.404-1.597c-.222-.882-.952-1.491-1.859-1.552-.913-.066-1.713.445-2.052 1.29l-.611 1.529c-.097.24-.344.385-.594.375l-1.646-.11c-.912-.056-1.713.446-2.05 1.29-.339.844-.105 1.766.593 2.349z" fill="#e6e7e8"/><path d="m39.049 21.922c-.245-.971-1.049-1.642-2.048-1.708l-1.968-.132c-.395-.026-.725-.302-.821-.685l-.483-1.913c-.246-.971-1.05-1.641-2.049-1.708-1.004-.071-1.885.49-2.257 1.42l-.733 1.831c-.147.367-.508.584-.905.569l-1.968-.131c-1.003-.07-1.885.491-2.258 1.42-.372.929-.116 1.944.653 2.585l1.515 1.263c.304.253.409.67.262 1.037l-.733 1.831c-.373.93-.116 1.945.653 2.586.77.642 1.813.711 2.662.178l1.669-1.05c.335-.211.763-.182 1.067.071l1.515 1.263c.425.354.935.534 1.448.534.416 0 .834-.118 1.213-.356.848-.533 1.237-1.505.992-2.476l-.483-1.913c-.097-.383.063-.782.397-.993l1.669-1.05c.847-.53 1.236-1.502.991-2.473z" fill="#e6e7e8"/><path d="m72.539 19.841c.12.012.239.018.357.018 1.841 0 3.423-1.402 3.607-3.272.195-1.99-1.265-3.769-3.254-3.965-.971-.095-1.909.191-2.657.806-.75.615-1.214 1.485-1.309 2.449-.096.964.19 1.908.806 2.657s1.485 1.212 2.45 1.307z" fill="#e6e7e8"/><path d="m81.26 42.489c-1.985-.193-3.769 1.264-3.966 3.255-.195 1.991 1.266 3.77 3.256 3.965.12.012.239.018.357.018 1.841 0 3.423-1.402 3.607-3.272.196-1.992-1.264-3.771-3.254-3.966z" fill="#e6e7e8"/><path d="m31.612 36.625c-2.001-.193-3.769 1.264-3.965 3.254-.196 1.991 1.264 3.77 3.254 3.965.121.012.24.018.358.018 1.842 0 3.423-1.402 3.607-3.272.095-.964-.191-1.908-.806-2.657-.614-.748-1.484-1.213-2.448-1.308z" fill="#e6e7e8"/><path d="m62.379 51.159c-.003.552.442 1.002.995 1.005h.005c.55 0 .997-.444 1-.995l.098-17.865c.408-7.266 4.145-9.726 4.317-9.835.467-.29.612-.903.324-1.372-.289-.472-.904-.619-1.376-.33-.195.12-4.791 3.033-5.264 11.475z" fill="#e6e7e8"/><path d="m70.265 49.22c.014 0 .027 0 .042-.001.552-.022.98-.488.958-1.04-.004-.099-.255-9.932 12.434-12.261.543-.1.902-.621.803-1.164-.099-.542-.61-.903-1.164-.803-14.378 2.639-14.076 14.193-14.071 14.31.021.538.464.959.998.959z" fill="#e6e7e8"/><path d="m46.465 31.173c9.991 1.426 9.589 8.708 9.567 9.017-.042.548.368 1.028.917 1.072.027.002.054.003.081.003.516 0 .954-.397.996-.92.008-.094.617-9.454-11.279-11.151-.544-.08-1.053.301-1.131.849-.078.545.302 1.052.849 1.13z" fill="#e6e7e8"/><path d="m83.77 71.105h-4.254v5.31h3.634c1.41 0 2.553 1.143 2.553 2.553v23.717c0 1.41-1.143 2.553-2.553 2.553h-3.634v5.309h4.254c3.951 0 7.154-3.203 7.154-7.154v-25.135c0-3.951-3.203-7.153-7.154-7.153z" fill="#ffd7e5"/><path d="m73.298 68.402c-.518 0-1.02-.058-1.515-.141v15.797c0 1.175-.952 2.127-2.127 2.127s-2.127-.952-2.127-2.127v-17.741c-.663-.547-1.258-1.176-1.744-1.888-.928.857-2.158 1.393-3.521 1.393-.997 0-1.922-.286-2.71-.775-.59 2.664-2.962 4.657-5.803 4.657-2.887 0-5.292-2.057-5.833-4.785-.553.307-1.079.673-1.561 1.102-.395.351-.859.717-1.404 1.099-.647.454-1.414.765-2.205.767-1.033.002-2-.274-2.837-.751-.007.099-.03.195-.03.296v40.495c0 7.647 6.199 13.845 13.845 13.845h11.945c7.646 0 13.845-6.199 13.845-13.845v-40.496c0-.454-.092-.883-.229-1.29-1.6 1.405-3.693 2.261-5.989 2.261z" fill="#ffd7e5"/><path d="m71.783 84.059c0 1.175-.952 2.127-2.127 2.127s-2.127-.952-2.127-2.127v-10.224h-23.891v33.483c0 5.887 4.79 10.678 10.678 10.678h10.768c5.887 0 10.677-4.79 10.677-10.678v-33.483h-3.977v10.224z" fill="#fa759e"/><path d="m46.638 107.317v-33.482h-3v33.483c0 5.887 4.79 10.678 10.678 10.678h3c-5.888-.001-10.678-4.791-10.678-10.679z" fill="#fff"/><path d="m73.659 50.231c-2.153-.084-4.141.589-5.735 1.765-1.081-1.485-2.829-2.454-4.806-2.454-1.933 0-3.645.926-4.731 2.354-1.418-1.222-3.336-1.878-5.407-1.614-2.704.345-4.999 2.344-5.733 4.969-.006.022-.013.045-.019.067-.314 1.164-1.493 1.817-2.633 1.426-.756-.26-1.584-.366-2.446-.28-2.559.255-4.698 2.279-5.074 4.823-.525 3.554 2.218 6.606 5.673 6.599.791-.002 1.558-.313 2.205-.767.544-.382 1.009-.747 1.404-1.099.483-.429 1.008-.795 1.561-1.102.541 2.728 2.946 4.785 5.833 4.785 2.841 0 5.213-1.994 5.803-4.657.787.489 1.713.775 2.71.775 1.363 0 2.593-.535 3.521-1.393.486.712 1.08 1.34 1.744 1.888v17.742c0 1.175.952 2.127 2.127 2.127s2.127-.952 2.127-2.127v-15.797c.494.083.997.141 1.515.141 5.11 0 9.236-4.217 9.086-9.362-.138-4.699-4.026-8.627-8.725-8.809z" fill="#ffd7e5"/><circle cx="42.201" cy="44.737" fill="#ffd7e5" r="6.729"/><path d="m27.256 53.98c-1.259 0-2.28 1.021-2.28 2.28s1.021 2.28 2.28 2.28 2.28-1.021 2.28-2.28c-.001-1.259-1.021-2.28-2.28-2.28z" fill="#ffd7e5"/><path d="m98.95 37.711-1.515-1.263c-.635-.53-1.54-.59-2.24-.15l-1.669 1.05c-1.04.655-2.31-.405-1.853-1.546l.733-1.831c.308-.768.086-1.647-.55-2.177l-1.515-1.263c-.944-.787-.329-2.322.897-2.24l1.968.132c.825.055 1.593-.427 1.9-1.195l.733-1.831c.457-1.141 2.107-1.031 2.408.161l.483 1.912c.203.802.899 1.383 1.724 1.438l1.968.132c1.226.082 1.631 1.685.591 2.34l-1.669 1.05c-.7.441-1.037 1.282-.835 2.084l.483 1.912c.301 1.191-1.098 2.072-2.042 1.285z" fill="#6dc9f7"/><path d="m57.318 15.854-1.578-.301c-.662-.126-1.33.188-1.655.778l-.774 1.408c-.482.877-1.806.625-1.931-.369l-.201-1.594c-.084-.669-.59-1.207-1.252-1.333l-1.578-.301c-.983-.188-1.152-1.524-.246-1.95l1.454-.684c.61-.287.966-.934.881-1.602l-.201-1.594c-.125-.993 1.094-1.567 1.779-.837l1.1 1.171c.461.491 1.186.63 1.796.343l1.454-.684c.906-.426 1.828.556 1.346 1.433l-.774 1.408c-.325.591-.232 1.323.229 1.814l1.1 1.171c.684.73.034 1.91-.949 1.723z" fill="#ffd7e5"/><path d="m84.23 13.189-1.266-1.056c-.531-.443-1.287-.493-1.872-.125l-1.395.878c-.87.547-1.931-.338-1.549-1.292l.613-1.53c.257-.642.072-1.376-.459-1.819l-1.266-1.056c-.789-.658-.275-1.941.75-1.873l1.645.11c.69.046 1.331-.357 1.588-.999l.613-1.53c.382-.954 1.761-.862 2.013.135l.404 1.598c.169.67.751 1.156 1.441 1.202l1.645.11c1.025.069 1.364 1.409.494 1.956l-1.395.878c-.585.368-.867 1.072-.698 1.742l.404 1.598c.249.995-.921 1.731-1.71 1.073z" fill="#fa759e"/><path d="m29.46 25.883-1.515-1.263c-.635-.53-1.54-.59-2.24-.15l-1.669 1.05c-1.04.655-2.31-.405-1.853-1.546l.733-1.831c.308-.768.086-1.647-.55-2.177l-1.515-1.263c-.944-.787-.329-2.322.897-2.24l1.968.132c.825.055 1.593-.427 1.9-1.195l.733-1.831c.457-1.141 2.107-1.031 2.408.161l.483 1.912c.203.802.899 1.383 1.724 1.438l1.968.132c1.226.082 1.631 1.685.591 2.34l-1.669 1.05c-.7.441-1.037 1.282-.835 2.084l.483 1.912c.302 1.192-1.098 2.072-2.042 1.285z" fill="#6dc9f7"/><circle cx="68.893" cy="12.231" fill="#ffd7e5" r="2.627"/><path d="m77.161 39.484c-1.444-.142-2.73.913-2.872 2.358-.142 1.444.913 2.73 2.358 2.872 1.444.142 2.73-.913 2.872-2.358.142-1.444-.914-2.73-2.358-2.872z" fill="#ffd7e5"/><path d="m27.513 33.62c-1.444-.142-2.73.913-2.872 2.358-.142 1.444.913 2.73 2.357 2.872s2.73-.913 2.872-2.358c.143-1.444-.913-2.729-2.357-2.872z" fill="#ffd7e5"/><g fill="#3a2c60"><path d="m83.77 70.104h-3.253v-2.673c0-.335-.039-.66-.103-.975.04-.04.083-.074.122-.114 1.916-1.973 2.927-4.576 2.847-7.33-.152-5.191-4.497-9.578-9.685-9.78-1.997-.076-3.905.417-5.588 1.436-1.301-1.345-3.106-2.126-4.993-2.126-1.848 0-3.575.717-4.867 1.997-1.579-1.055-3.46-1.493-5.397-1.249-3.087.394-5.728 2.681-6.59 5.768-.082.303-.27.546-.53.684-.248.132-.536.151-.813.056-.92-.316-1.886-.426-2.87-.329-3.014.3-5.522 2.686-5.964 5.672-.29 1.96.28 3.935 1.562 5.417.366.423.784.788 1.233 1.103v4.53c0 .552.448 1 1 1s1-.448 1-1v-3.576c.598.172 1.219.27 1.854.27h.015c.936-.002 1.896-.33 2.778-.948.557-.391 1.06-.785 1.494-1.171.109-.097.222-.192.339-.284 1.074 2.511 3.572 4.22 6.39 4.22 2.81 0 5.333-1.731 6.402-4.258 1.782.654 3.849.421 5.451-.614.283.329.593.644.926.944v6.06h-22.892c-.552 0-1 .448-1 1v33.482c0 6.439 5.239 11.678 11.678 11.678h10.768c6.439 0 11.677-5.239 11.677-11.678v-33.481c0-.552-.447-1-1-1h-2.978v-3.448c.176.011.346.016.515.016 1.876 0 3.662-.516 5.22-1.464v39.987c0 7.083-5.763 12.845-12.846 12.845h-11.946c-7.083 0-12.845-5.762-12.845-12.845v-20.586c0-.552-.448-1-1-1s-1 .448-1 1v20.585c0 8.186 6.66 14.845 14.845 14.845h11.945c6.935 0 12.758-4.786 14.38-11.225h3.718c4.496 0 8.154-3.658 8.154-8.154v-25.133c.001-4.496-3.657-8.154-8.153-8.154zm-9.01 4.731v32.482c0 5.336-4.341 9.678-9.677 9.678h-10.768c-5.336 0-9.678-4.341-9.678-9.678v-32.482h21.893v9.224c0 1.724 1.402 3.127 3.127 3.127 1.724 0 3.126-1.403 3.126-3.127v-9.224zm-2.811-7.56c-.293-.047-.587.033-.812.223s-.354.47-.354.764v15.797c0 .622-.505 1.127-1.126 1.127s-1.127-.505-1.127-1.127v-17.742c0-.299-.134-.582-.364-.771-.617-.509-1.141-1.075-1.554-1.681-.164-.24-.425-.397-.714-.43-.037-.004-.075-.006-.112-.006-.25 0-.493.094-.679.266-1.365 1.261-3.471 1.467-5.025.502-.276-.171-.617-.198-.916-.072s-.518.389-.588.706c-.498 2.244-2.528 3.873-4.827 3.873-2.354 0-4.395-1.674-4.852-3.979-.062-.313-.271-.579-.561-.713-.29-.135-.627-.123-.906.033-.634.352-1.219.766-1.74 1.229-.376.335-.818.681-1.313 1.027-.38.267-.971.584-1.633.585-.003 0-.007 0-.01 0-1.373 0-2.676-.596-3.575-1.636-.915-1.057-1.304-2.413-1.096-3.817.309-2.092 2.069-3.763 4.184-3.974.696-.07 1.376.008 2.021.23.808.278 1.66.213 2.401-.181.744-.395 1.299-1.098 1.539-1.988.628-2.247 2.596-3.954 4.896-4.247 1.7-.218 3.344.273 4.627 1.379.209.18.48.267.757.237.274-.029.524-.17.691-.389.947-1.245 2.382-1.959 3.936-1.959 1.572 0 3.067.764 3.998 2.042.157.215.394.359.656.4.264.038.532-.026.746-.184 1.489-1.1 3.262-1.639 5.103-1.571 4.159.162 7.642 3.68 7.763 7.841.065 2.208-.745 4.296-2.282 5.878-1.537 1.583-3.598 2.455-5.804 2.455-.401.001-.83-.04-1.348-.127zm8.568 10.139h2.634c.856 0 1.553.697 1.553 1.553v23.718c0 .856-.696 1.553-1.553 1.553h-2.634zm9.407 25.978c0 3.393-2.761 6.154-6.154 6.154h-3.253v-1.621-1.688h2.634c1.959 0 3.553-1.594 3.553-3.553v-23.717c0-1.959-1.594-3.553-3.553-3.553h-2.634v-3.31h3.253c3.394 0 6.154 2.761 6.154 6.154z"/><path d="m39.881 83.234c.552 0 1-.448 1-1v-5.106c0-.552-.448-1-1-1s-1 .448-1 1v5.106c0 .552.448 1 1 1z"/><path d="m42.201 52.466c4.262 0 7.729-3.467 7.729-7.729s-3.467-7.729-7.729-7.729-7.729 3.467-7.729 7.729 3.467 7.729 7.729 7.729zm0-13.458c3.159 0 5.729 2.57 5.729 5.729s-2.57 5.729-5.729 5.729-5.729-2.57-5.729-5.729 2.57-5.729 5.729-5.729z"/><path d="m27.256 52.98c-1.809 0-3.28 1.471-3.28 3.28s1.471 3.28 3.28 3.28 3.28-1.471 3.28-3.28-1.472-3.28-3.28-3.28zm0 4.559c-.706 0-1.28-.574-1.28-1.28s.574-1.28 1.28-1.28 1.28.574 1.28 1.28-.575 1.28-1.28 1.28z"/><path d="m104.537 29.75c-.245-.971-1.049-1.642-2.049-1.708l-1.968-.131c-.394-.026-.724-.302-.82-.686l-.483-1.912c-.245-.971-1.049-1.642-2.048-1.708-.998-.066-1.886.49-2.259 1.42l-.732 1.831c-.146.366-.472.59-.905.57l-1.968-.132c-.979-.07-1.885.491-2.258 1.42-.372.93-.115 1.945.653 2.586l1.515 1.263c.304.253.409.67.262 1.037l-.733 1.831c-.372.929-.116 1.944.653 2.585.769.642 1.814.712 2.661.178l1.669-1.05c.334-.21.764-.182 1.067.071l1.515 1.263c.426.354.935.534 1.448.534.415 0 .834-.118 1.213-.356.848-.533 1.237-1.505.992-2.476l-.483-1.912c-.097-.383.063-.782.397-.993l1.67-1.051c.848-.532 1.237-1.503.991-2.474zm-2.055.782-1.671 1.051c-1.069.673-1.58 1.949-1.271 3.175l.483 1.912c.032.126-.008.225-.117.293-.108.068-.217.063-.315-.021l-1.515-1.263c-.972-.81-2.342-.903-3.413-.228l-1.669 1.05c-.107.068-.216.063-.315-.021-.1-.083-.126-.186-.077-.307l.733-1.831c.47-1.173.133-2.505-.838-3.316l-1.515-1.263c-.1-.083-.126-.186-.078-.307.049-.12.127-.179.269-.168l1.968.132c1.272.092 2.425-.648 2.896-1.821l.732-1.831c.048-.12.123-.18.268-.168.129.008.211.077.242.203l.483 1.911c.309 1.227 1.364 2.107 2.627 2.191l1.968.131c.129.009.211.077.243.203.03.126-.009.225-.118.293z"/><path d="m48.161 15.124 1.578.301c.237.045.417.236.447.476l.202 1.593c.112.891.754 1.575 1.636 1.743.134.026.267.038.398.038.731 0 1.398-.389 1.765-1.056l.774-1.408c.117-.211.353-.322.591-.278l1.578.301c.882.167 1.731-.232 2.163-1.019s.314-1.717-.3-2.371l-1.1-1.171c-.165-.176-.198-.437-.082-.648l.775-1.408c.432-.787.314-1.718-.3-2.372-.612-.651-1.536-.828-2.346-.445l-1.455.684c-.219.104-.476.054-.641-.123l-1.1-1.171c-.615-.655-1.536-.831-2.348-.448-.812.382-1.264 1.204-1.152 2.095l.201 1.594c.03.239-.096.469-.314.572l-1.454.684c-.812.382-1.264 1.205-1.152 2.095s.755 1.574 1.636 1.742zm1.821-2.712c1.005-.473 1.586-1.531 1.447-2.632l-.143-1.621 1.099 1.17c.76.812 1.948 1.038 2.951.563l1.499-.637-.775 1.408c-.535.973-.383 2.17.376 2.98l1.092 1.229c-.001 0-.006.001-.022-.002l-1.578-.301c-1.09-.208-2.184.305-2.718 1.279l-.837 1.396-.202-1.593c-.138-1.102-.965-1.982-2.056-2.191l-1.586-.365z"/><path d="m77.66 9.012c.199.166.269.439.172.679l-.613 1.531c-.338.844-.104 1.766.594 2.349s1.649.646 2.416.161l1.396-.877c.221-.138.503-.118.7.046l1.266 1.056c.387.322.849.485 1.315.485.377 0 .757-.107 1.102-.323.77-.484 1.123-1.367.901-2.249l-.404-1.598c-.063-.252.042-.514.261-.651l1.396-.878c.77-.485 1.122-1.368.899-2.25-.223-.881-.953-1.49-1.859-1.55l-1.646-.11c-.258-.018-.474-.198-.537-.449l-.404-1.598c-.223-.882-.952-1.491-1.859-1.552-.92-.055-1.713.446-2.052 1.29l-.613 1.531c-.097.241-.354.378-.592.374l-1.646-.11c-.915-.06-1.712.446-2.05 1.29-.339.844-.105 1.766.593 2.349zm.057-2.7 1.646.11c1.139.077 2.164-.579 2.583-1.625l.613-1.53c.002 0 .112.007.114.007l.404 1.598c.275 1.095 1.218 1.88 2.343 1.955l1.646.11c.001 0 .029.112.029.112l-1.395.879c-.955.601-1.411 1.739-1.136 2.833l.378 1.665c-.037.024-.049.014-.071-.005l-1.266-1.056c-.867-.722-2.092-.804-3.046-.203l-1.396.878-.088-.074.613-1.531c.419-1.048.118-2.237-.748-2.959l-1.265-1.056-.641.768z"/><path d="m35.049 17.922c-.245-.971-1.049-1.642-2.048-1.708l-1.968-.132c-.395-.026-.725-.302-.821-.685l-.483-1.913c-.246-.971-1.05-1.641-2.049-1.708-1.007-.075-1.885.49-2.257 1.42l-.733 1.831c-.147.367-.5.592-.905.569l-1.968-.131c-.999-.067-1.886.491-2.258 1.42s-.116 1.944.653 2.585l1.515 1.263c.304.253.409.67.262 1.037l-.733 1.831c-.373.93-.116 1.945.653 2.586.77.642 1.813.711 2.662.178l1.669-1.05c.334-.211.764-.182 1.067.071l1.515 1.263c.425.354.935.534 1.448.534.416 0 .834-.118 1.213-.356.848-.533 1.237-1.505.992-2.476l-.483-1.913c-.097-.383.063-.782.397-.993l1.669-1.05c.846-.53 1.236-1.502.991-2.473zm-2.057.783-1.669 1.05c-1.07.673-1.582 1.95-1.272 3.175l.483 1.912c.032.126-.008.225-.118.293-.111.069-.216.062-.315-.021l-1.515-1.263c-.972-.81-2.343-.902-3.413-.228l-1.669 1.05c-.111.069-.216.061-.315-.021-.1-.083-.126-.186-.078-.307l.733-1.831c.47-1.174.134-2.507-.837-3.316l-1.515-1.263c-.099-.083-.125-.186-.077-.306.049-.12.142-.17.268-.168l1.968.131c1.264.086 2.425-.647 2.895-1.821l.733-1.831c.048-.12.137-.173.268-.168.129.009.211.077.243.202l.483 1.913c.31 1.226 1.366 2.106 2.627 2.19l1.968.132c.129.009.211.077.243.203s-.01.224-.119.293z"/><path d="m68.538 15.841c.12.012.239.018.357.018 1.841 0 3.423-1.402 3.607-3.272.195-1.99-1.265-3.769-3.255-3.965-.965-.096-1.908.191-2.656.806-.75.615-1.214 1.485-1.309 2.449s.191 1.908.806 2.657c.616.748 1.486 1.212 2.45 1.307zm-1.264-3.769c.043-.433.251-.823.587-1.099.294-.241.654-.37 1.029-.37.054 0 .108.002.162.008.893.088 1.548.886 1.461 1.779-.089.894-.903 1.545-1.779 1.46-.433-.042-.822-.251-1.099-.587-.275-.335-.404-.758-.361-1.191z"/><path d="m77.259 38.489c-1.987-.195-3.77 1.265-3.966 3.255-.195 1.99 1.266 3.769 3.256 3.965.12.012.239.018.357.018 1.841 0 3.423-1.402 3.607-3.272.196-1.992-1.264-3.771-3.254-3.966zm-.514 5.23c-.894-.088-1.55-.887-1.462-1.779.083-.839.793-1.468 1.619-1.468.054 0 .106.002.161.008.893.088 1.547.886 1.46 1.779-.087.892-.883 1.547-1.778 1.46z"/><path d="m27.611 32.625c-1.995-.188-3.77 1.265-3.965 3.254-.196 1.991 1.264 3.77 3.254 3.965.121.012.24.018.358.018 1.842 0 3.423-1.402 3.607-3.272.196-1.99-1.264-3.769-3.254-3.965zm-.514 5.23c-.893-.088-1.548-.886-1.46-1.779.083-.839.792-1.468 1.619-1.468.053 0 .106.002.16.008.893.088 1.548.886 1.46 1.779-.089.892-.888 1.549-1.779 1.46z"/><path d="m58.379 47.159c-.003.552.442 1.002.995 1.005h.005c.55 0 .997-.444 1-.995l.098-17.865c.408-7.267 4.146-9.727 4.317-9.835.466-.29.612-.903.324-1.372-.289-.471-.905-.619-1.375-.33-.195.12-4.792 3.034-5.264 11.476z"/><path d="m66.264 45.22c.014 0 .027 0 .042-.001.552-.022.98-.488.958-1.04-.004-.099-.255-9.932 12.434-12.261.543-.1.902-.621.803-1.164-.099-.542-.609-.903-1.164-.803-14.377 2.639-14.075 14.193-14.07 14.309.02.539.464.96.997.96z"/><path d="m42.465 27.173c9.991 1.426 9.589 8.708 9.567 9.017-.042.548.368 1.028.917 1.072.027.002.054.003.081.003.516 0 .954-.397.996-.92.008-.094.617-9.454-11.279-11.151-.543-.081-1.054.301-1.131.849-.078.545.302 1.052.849 1.13z"/></g></svg>